<svg
  id="logo"
  data-name="logo"
  xmlns="http://www.w3.org/2000/svg"
  viewBox="0 0 325.00002 375"
  width="64"
  height="64"
>
  <title>Beacon</title>
  <polygon
    className="outer-blue"
    fill="#3bb4e7"
    points="0,93.83 162.53,0 325.05,93.83 283.68,117.86 163.03,48.2 42.38,117.86"
  />
  <polygon    
    className="outer-yellow"
    fill="#ffd85f"
    points="0.06,93.94 0.38,281.73 162.91,375.56 163.09,326.94 42.44,257.29 42.44,117.97"
  />
  <polygon
    className="outer-red"
    fill="#ed5c68"
    points="324.95,93.89 325.33,281.63 162.75,375.5 162.94,326.89 283.59,257.23 283.59,117.91"
  />
  <polygon
    className="inner-blue"
    fill="#3bb4e7"
    points="253.89,135.22 162.9,82.69 71.92,135.22 119.66,162.41 162.97,137.4 206.28,162.41"
  />
  <polygon
    className="inner-yellow"
    fill="#ffd85f"
    points="71.92,135.22 71.92,240.28 162.9,292.81 162.97,237.42 119.66,212.41 119.66,162.41"
  />
  <polygon
    className="inner-red"
    fill="#ed5c68"
    points="253.89,135.22 253.89,240.28 162.9,292.81 162.97,237.42 206.28,212.41 206.28,162.41"
  />
</svg>
